<svg preserveAspectRatio="xMidYMid meet" width="106" height="85" overflow="visible" style="display: block;" viewBox="0 0 106 85" fill="none" xmlns="http://www.w3.org/2000/svg">
<g id="Vector">
<path d="M10.6555 84.2556C8.5466 84.2556 7.32565 82.9528 7.32565 80.6636V76.5505H3.36684C1.22094 76.5505 0 75.3594 0 73.3122C0 71.265 1.22094 70.0739 3.36684 70.0739H7.32565V65.9236C7.32565 63.653 8.5651 62.3502 10.6555 62.3502C12.7644 62.3502 13.9853 63.653 13.9853 65.9236V70.0739H17.9257C20.0716 70.0739 21.311 71.265 21.311 73.3122C21.311 75.3594 20.0531 76.5505 17.8887 76.5505H13.9853V80.6822C13.9853 82.9528 12.7644 84.2556 10.6555 84.2556Z" fill="white"/>
<path d="M10.6555 84.2556C8.5466 84.2556 7.32565 82.9528 7.32565 80.6636V76.5505H3.36684C1.22094 76.5505 0 75.3594 0 73.3122C0 71.265 1.22094 70.0739 3.36684 70.0739H7.32565V65.9236C7.32565 63.653 8.5651 62.3502 10.6555 62.3502C12.7644 62.3502 13.9853 63.653 13.9853 65.9236V70.0739H17.9257C20.0716 70.0739 21.311 71.265 21.311 73.3122C21.311 75.3594 20.0531 76.5505 17.8887 76.5505H13.9853V80.6822C13.9853 82.9528 12.7644 84.2556 10.6555 84.2556Z" fill="#FAE458"/>
<path d="M10.6555 84.2556C8.5466 84.2556 7.32565 82.9528 7.32565 80.6636V76.5505H3.36684C1.22094 76.5505 0 75.3594 0 73.3122C0 71.265 1.22094 70.0739 3.36684 70.0739H7.32565V65.9236C7.32565 63.653 8.5651 62.3502 10.6555 62.3502C12.7644 62.3502 13.9853 63.653 13.9853 65.9236V70.0739H17.9257C20.0716 70.0739 21.311 71.265 21.311 73.3122C21.311 75.3594 20.0531 76.5505 17.8887 76.5505H13.9853V80.6822C13.9853 82.9528 12.7644 84.2556 10.6555 84.2556Z" fill="url(#paint0_radial_2410_1774)"/>
<path d="M10.6555 84.2556C8.5466 84.2556 7.32565 82.9528 7.32565 80.6636V76.5505H3.36684C1.22094 76.5505 0 75.3594 0 73.3122C0 71.265 1.22094 70.0739 3.36684 70.0739H7.32565V65.9236C7.32565 63.653 8.5651 62.3502 10.6555 62.3502C12.7644 62.3502 13.9853 63.653 13.9853 65.9236V70.0739H17.9257C20.0716 70.0739 21.311 71.265 21.311 73.3122C21.311 75.3594 20.0531 76.5505 17.8887 76.5505H13.9853V80.6822C13.9853 82.9528 12.7644 84.2556 10.6555 84.2556Z" fill="url(#paint1_radial_2410_1774)"/>
<path d="M35.2223 84.7208C32.8729 84.7208 31.3005 83.1947 31.3005 80.8311V64.1555H31.1525L28.3222 66.1283C27.6562 66.5936 27.2307 66.7425 26.4907 66.7425C25.0293 66.7425 23.9009 65.6444 23.9009 64.0811C23.9009 62.983 24.3449 62.0897 25.3808 61.3825L30.2276 58.1255C31.7815 57.0833 33.1319 56.9344 34.6489 56.9344C37.4792 56.9344 39.1442 58.6466 39.1442 61.3452V80.8311C39.1442 83.1947 37.5717 84.7208 35.2223 84.7208Z" fill="white"/>
<path d="M35.2223 84.7208C32.8729 84.7208 31.3005 83.1947 31.3005 80.8311V64.1555H31.1525L28.3222 66.1283C27.6562 66.5936 27.2307 66.7425 26.4907 66.7425C25.0293 66.7425 23.9009 65.6444 23.9009 64.0811C23.9009 62.983 24.3449 62.0897 25.3808 61.3825L30.2276 58.1255C31.7815 57.0833 33.1319 56.9344 34.6489 56.9344C37.4792 56.9344 39.1442 58.6466 39.1442 61.3452V80.8311C39.1442 83.1947 37.5717 84.7208 35.2223 84.7208Z" fill="#FAE458"/>
<path d="M35.2223 84.7208C32.8729 84.7208 31.3005 83.1947 31.3005 80.8311V64.1555H31.1525L28.3222 66.1283C27.6562 66.5936 27.2307 66.7425 26.4907 66.7425C25.0293 66.7425 23.9009 65.6444 23.9009 64.0811C23.9009 62.983 24.3449 62.0897 25.3808 61.3825L30.2276 58.1255C31.7815 57.0833 33.1319 56.9344 34.6489 56.9344C37.4792 56.9344 39.1442 58.6466 39.1442 61.3452V80.8311C39.1442 83.1947 37.5717 84.7208 35.2223 84.7208Z" fill="url(#paint2_radial_2410_1774)"/>
<path d="M35.2223 84.7208C32.8729 84.7208 31.3005 83.1947 31.3005 80.8311V64.1555H31.1525L28.3222 66.1283C27.6562 66.5936 27.2307 66.7425 26.4907 66.7425C25.0293 66.7425 23.9009 65.6444 23.9009 64.0811C23.9009 62.983 24.3449 62.0897 25.3808 61.3825L30.2276 58.1255C31.7815 57.0833 33.1319 56.9344 34.6489 56.9344C37.4792 56.9344 39.1442 58.6466 39.1442 61.3452V80.8311C39.1442 83.1947 37.5717 84.7208 35.2223 84.7208Z" fill="url(#paint3_radial_2410_1774)"/>
<path d="M56.0894 85C48.7637 85 44.1389 79.64 44.1389 70.7625C44.1389 61.8291 48.8192 56.6366 56.0894 56.6366C63.3595 56.6366 68.0213 61.8105 68.0213 70.7439C68.0213 79.6028 63.415 85 56.0894 85ZM56.0894 78.9328C58.4942 78.9328 60.0297 76.383 60.0297 70.7625C60.0297 65.1233 58.4942 62.7039 56.0894 62.7039C53.6845 62.7039 52.1305 65.1233 52.1305 70.7625C52.1305 76.383 53.6845 78.9328 56.0894 78.9328Z" fill="white"/>
<path d="M56.0894 85C48.7637 85 44.1389 79.64 44.1389 70.7625C44.1389 61.8291 48.8192 56.6366 56.0894 56.6366C63.3595 56.6366 68.0213 61.8105 68.0213 70.7439C68.0213 79.6028 63.415 85 56.0894 85ZM56.0894 78.9328C58.4942 78.9328 60.0297 76.383 60.0297 70.7625C60.0297 65.1233 58.4942 62.7039 56.0894 62.7039C53.6845 62.7039 52.1305 65.1233 52.1305 70.7625C52.1305 76.383 53.6845 78.9328 56.0894 78.9328Z" fill="#FAE458"/>
<path d="M56.0894 85C48.7637 85 44.1389 79.64 44.1389 70.7625C44.1389 61.8291 48.8192 56.6366 56.0894 56.6366C63.3595 56.6366 68.0213 61.8105 68.0213 70.7439C68.0213 79.6028 63.415 85 56.0894 85ZM56.0894 78.9328C58.4942 78.9328 60.0297 76.383 60.0297 70.7625C60.0297 65.1233 58.4942 62.7039 56.0894 62.7039C53.6845 62.7039 52.1305 65.1233 52.1305 70.7625C52.1305 76.383 53.6845 78.9328 56.0894 78.9328Z" fill="url(#paint4_radial_2410_1774)"/>
<path d="M56.0894 85C48.7637 85 44.1389 79.64 44.1389 70.7625C44.1389 61.8291 48.8192 56.6366 56.0894 56.6366C63.3595 56.6366 68.0213 61.8105 68.0213 70.7439C68.0213 79.6028 63.415 85 56.0894 85ZM56.0894 78.9328C58.4942 78.9328 60.0297 76.383 60.0297 70.7625C60.0297 65.1233 58.4942 62.7039 56.0894 62.7039C53.6845 62.7039 52.1305 65.1233 52.1305 70.7625C52.1305 76.383 53.6845 78.9328 56.0894 78.9328Z" fill="url(#paint5_radial_2410_1774)"/>
<path d="M80.5267 84.7208C79.3243 84.7208 78.1218 83.9206 78.1218 82.5992C78.1218 81.8547 78.3438 81.4081 78.6768 80.8869L85.9654 69.8691L93.4021 58.4233C94.0866 57.3811 94.66 56.9158 95.8995 56.9158C97.2129 56.9158 98.1934 57.8277 98.1934 59.1119C98.1934 59.6702 97.9714 60.1914 97.6014 60.7497L90.6087 71.3766L82.8391 83.2692C82.1546 84.33 81.5442 84.7208 80.5267 84.7208ZM77.2894 72.2886C73.127 72.2886 70.4262 69.4225 70.4262 64.565C70.4262 59.6516 73.164 56.9158 77.2894 56.9158C81.4332 56.9158 84.1525 59.6516 84.1525 64.5464C84.1525 69.3853 81.4702 72.2886 77.2894 72.2886ZM77.2894 68.3616C78.2143 68.3616 78.8618 67.3566 78.8618 64.565C78.8618 61.7361 78.2143 60.8427 77.2894 60.8427C76.3644 60.8427 75.7169 61.7361 75.7169 64.565C75.7169 67.3566 76.3829 68.3616 77.2894 68.3616ZM99.1368 84.7208C94.9745 84.7208 92.2736 81.8547 92.2736 76.9972C92.2736 72.0839 95.0115 69.348 99.1368 69.348C103.281 69.348 106 72.0839 106 76.9786C106 81.8175 103.318 84.7208 99.1368 84.7208ZM99.1368 80.7939C100.062 80.7939 100.709 79.7889 100.709 76.9972C100.709 74.1683 100.062 73.275 99.1368 73.275C98.2119 73.275 97.5644 74.1683 97.5644 76.9972C97.5644 79.7889 98.2304 80.7939 99.1368 80.7939Z" fill="white"/>
<path d="M80.5267 84.7208C79.3243 84.7208 78.1218 83.9206 78.1218 82.5992C78.1218 81.8547 78.3438 81.4081 78.6768 80.8869L85.9654 69.8691L93.4021 58.4233C94.0866 57.3811 94.66 56.9158 95.8995 56.9158C97.2129 56.9158 98.1934 57.8277 98.1934 59.1119C98.1934 59.6702 97.9714 60.1914 97.6014 60.7497L90.6087 71.3766L82.8391 83.2692C82.1546 84.33 81.5442 84.7208 80.5267 84.7208ZM77.2894 72.2886C73.127 72.2886 70.4262 69.4225 70.4262 64.565C70.4262 59.6516 73.164 56.9158 77.2894 56.9158C81.4332 56.9158 84.1525 59.6516 84.1525 64.5464C84.1525 69.3853 81.4702 72.2886 77.2894 72.2886ZM77.2894 68.3616C78.2143 68.3616 78.8618 67.3566 78.8618 64.565C78.8618 61.7361 78.2143 60.8427 77.2894 60.8427C76.3644 60.8427 75.7169 61.7361 75.7169 64.565C75.7169 67.3566 76.3829 68.3616 77.2894 68.3616ZM99.1368 84.7208C94.9745 84.7208 92.2736 81.8547 92.2736 76.9972C92.2736 72.0839 95.0115 69.348 99.1368 69.348C103.281 69.348 106 72.0839 106 76.9786C106 81.8175 103.318 84.7208 99.1368 84.7208ZM99.1368 80.7939C100.062 80.7939 100.709 79.7889 100.709 76.9972C100.709 74.1683 100.062 73.275 99.1368 73.275C98.2119 73.275 97.5644 74.1683 97.5644 76.9972C97.5644 79.7889 98.2304 80.7939 99.1368 80.7939Z" fill="#FAE458"/>
<path d="M80.5267 84.7208C79.3243 84.7208 78.1218 83.9206 78.1218 82.5992C78.1218 81.8547 78.3438 81.4081 78.6768 80.8869L85.9654 69.8691L93.4021 58.4233C94.0866 57.3811 94.66 56.9158 95.8995 56.9158C97.2129 56.9158 98.1934 57.8277 98.1934 59.1119C98.1934 59.6702 97.9714 60.1914 97.6014 60.7497L90.6087 71.3766L82.8391 83.2692C82.1546 84.33 81.5442 84.7208 80.5267 84.7208ZM77.2894 72.2886C73.127 72.2886 70.4262 69.4225 70.4262 64.565C70.4262 59.6516 73.164 56.9158 77.2894 56.9158C81.4332 56.9158 84.1525 59.6516 84.1525 64.5464C84.1525 69.3853 81.4702 72.2886 77.2894 72.2886ZM77.2894 68.3616C78.2143 68.3616 78.8618 67.3566 78.8618 64.565C78.8618 61.7361 78.2143 60.8427 77.2894 60.8427C76.3644 60.8427 75.7169 61.7361 75.7169 64.565C75.7169 67.3566 76.3829 68.3616 77.2894 68.3616ZM99.1368 84.7208C94.9745 84.7208 92.2736 81.8547 92.2736 76.9972C92.2736 72.0839 95.0115 69.348 99.1368 69.348C103.281 69.348 106 72.0839 106 76.9786C106 81.8175 103.318 84.7208 99.1368 84.7208ZM99.1368 80.7939C100.062 80.7939 100.709 79.7889 100.709 76.9972C100.709 74.1683 100.062 73.275 99.1368 73.275C98.2119 73.275 97.5644 74.1683 97.5644 76.9972C97.5644 79.7889 98.2304 80.7939 99.1368 80.7939Z" fill="url(#paint6_radial_2410_1774)"/>
<path d="M80.5267 84.7208C79.3243 84.7208 78.1218 83.9206 78.1218 82.5992C78.1218 81.8547 78.3438 81.4081 78.6768 80.8869L85.9654 69.8691L93.4021 58.4233C94.0866 57.3811 94.66 56.9158 95.8995 56.9158C97.2129 56.9158 98.1934 57.8277 98.1934 59.1119C98.1934 59.6702 97.9714 60.1914 97.6014 60.7497L90.6087 71.3766L82.8391 83.2692C82.1546 84.33 81.5442 84.7208 80.5267 84.7208ZM77.2894 72.2886C73.127 72.2886 70.4262 69.4225 70.4262 64.565C70.4262 59.6516 73.164 56.9158 77.2894 56.9158C81.4332 56.9158 84.1525 59.6516 84.1525 64.5464C84.1525 69.3853 81.4702 72.2886 77.2894 72.2886ZM77.2894 68.3616C78.2143 68.3616 78.8618 67.3566 78.8618 64.565C78.8618 61.7361 78.2143 60.8427 77.2894 60.8427C76.3644 60.8427 75.7169 61.7361 75.7169 64.565C75.7169 67.3566 76.3829 68.3616 77.2894 68.3616ZM99.1368 84.7208C94.9745 84.7208 92.2736 81.8547 92.2736 76.9972C92.2736 72.0839 95.0115 69.348 99.1368 69.348C103.281 69.348 106 72.0839 106 76.9786C106 81.8175 103.318 84.7208 99.1368 84.7208ZM99.1368 80.7939C100.062 80.7939 100.709 79.7889 100.709 76.9972C100.709 74.1683 100.062 73.275 99.1368 73.275C98.2119 73.275 97.5644 74.1683 97.5644 76.9972C97.5644 79.7889 98.2304 80.7939 99.1368 80.7939Z" fill="url(#paint7_radial_2410_1774)"/>
<path fill-rule="evenodd" clip-rule="evenodd" d="M55.4006 42.4803L44.631 49.709C43.5111 50.4605 42.0471 50.0752 41.3611 48.8483C41.0261 48.249 40.9262 47.5268 41.0841 46.8458L42.7513 39.6562C43.3531 37.0608 44.974 34.8914 47.1772 33.7323L58.9264 27.5517C59.4741 27.2636 59.705 26.5435 59.442 25.9433C59.229 25.4573 58.7474 25.1853 58.2625 25.2773L45.1842 27.7581C42.5257 28.2623 39.7994 27.458 37.7314 25.5593L33.5999 21.7657C32.5934 20.8415 32.4612 19.1982 33.3047 18.0954C33.715 17.559 34.3049 17.226 34.9417 17.1714L47.5648 16.089C48.4566 16.0125 49.2338 15.3942 49.5762 14.4887L54.4459 1.60891C54.9485 0.279567 56.3395 -0.351652 57.5528 0.199042C58.1354 0.463462 58.5982 0.970606 58.8396 1.60891L63.7094 14.4887C64.0517 15.3942 64.8289 16.0125 65.7207 16.089L78.4133 17.1774C79.7225 17.2896 80.7006 18.5435 80.5982 19.978C80.549 20.6681 80.251 21.3083 79.7703 21.7574L70.0904 30.7993C69.4087 31.4358 69.1116 32.4378 69.321 33.3917L72.297 46.9369C72.6044 48.336 71.8184 49.7429 70.5419 50.0797C69.9282 50.2417 69.2811 50.1294 68.7431 49.7682L57.8849 42.4803C57.1226 41.9687 56.1629 41.9687 55.4006 42.4803Z" fill="var(--fill-0, #FAE458)"/>
<path fill-rule="evenodd" clip-rule="evenodd" d="M55.4006 42.4803L44.631 49.709C43.5111 50.4605 42.0471 50.0752 41.3611 48.8483C41.0261 48.249 40.9262 47.5268 41.0841 46.8458L42.7513 39.6562C43.3531 37.0608 44.974 34.8914 47.1772 33.7323L58.9264 27.5517C59.4741 27.2636 59.705 26.5435 59.442 25.9433C59.229 25.4573 58.7474 25.1853 58.2625 25.2773L45.1842 27.7581C42.5257 28.2623 39.7994 27.458 37.7314 25.5593L33.5999 21.7657C32.5934 20.8415 32.4612 19.1982 33.3047 18.0954C33.715 17.559 34.3049 17.226 34.9417 17.1714L47.5648 16.089C48.4566 16.0125 49.2338 15.3942 49.5762 14.4887L54.4459 1.60891C54.9485 0.279567 56.3395 -0.351652 57.5528 0.199042C58.1354 0.463462 58.5982 0.970606 58.8396 1.60891L63.7094 14.4887C64.0517 15.3942 64.8289 16.0125 65.7207 16.089L78.4133 17.1774C79.7225 17.2896 80.7006 18.5435 80.5982 19.978C80.549 20.6681 80.251 21.3083 79.7703 21.7574L70.0904 30.7993C69.4087 31.4358 69.1116 32.4378 69.321 33.3917L72.297 46.9369C72.6044 48.336 71.8184 49.7429 70.5419 50.0797C69.9282 50.2417 69.2811 50.1294 68.7431 49.7682L57.8849 42.4803C57.1226 41.9687 56.1629 41.9687 55.4006 42.4803Z" fill="url(#paint8_radial_2410_1774)"/>
<path fill-rule="evenodd" clip-rule="evenodd" d="M55.4006 42.4803L44.631 49.709C43.5111 50.4605 42.0471 50.0752 41.3611 48.8483C41.0261 48.249 40.9262 47.5268 41.0841 46.8458L42.7513 39.6562C43.3531 37.0608 44.974 34.8914 47.1772 33.7323L58.9264 27.5517C59.4741 27.2636 59.705 26.5435 59.442 25.9433C59.229 25.4573 58.7474 25.1853 58.2625 25.2773L45.1842 27.7581C42.5257 28.2623 39.7994 27.458 37.7314 25.5593L33.5999 21.7657C32.5934 20.8415 32.4612 19.1982 33.3047 18.0954C33.715 17.559 34.3049 17.226 34.9417 17.1714L47.5648 16.089C48.4566 16.0125 49.2338 15.3942 49.5762 14.4887L54.4459 1.60891C54.9485 0.279567 56.3395 -0.351652 57.5528 0.199042C58.1354 0.463462 58.5982 0.970606 58.8396 1.60891L63.7094 14.4887C64.0517 15.3942 64.8289 16.0125 65.7207 16.089L78.4133 17.1774C79.7225 17.2896 80.7006 18.5435 80.5982 19.978C80.549 20.6681 80.251 21.3083 79.7703 21.7574L70.0904 30.7993C69.4087 31.4358 69.1116 32.4378 69.321 33.3917L72.297 46.9369C72.6044 48.336 71.8184 49.7429 70.5419 50.0797C69.9282 50.2417 69.2811 50.1294 68.7431 49.7682L57.8849 42.4803C57.1226 41.9687 56.1629 41.9687 55.4006 42.4803Z" fill="url(#paint9_radial_2410_1774)"/>
<path d="M56.0889 57.1367C59.5975 57.1367 62.4351 58.3803 64.4023 60.666C66.3772 62.9608 67.5215 66.36 67.5215 70.7441C67.5214 75.0915 66.391 78.5297 64.4199 80.8721C62.4571 83.2046 59.6195 84.5 56.0889 84.5C52.5574 84.4999 49.7159 83.213 47.749 80.8877C45.7739 78.5525 44.6387 75.1192 44.6387 70.7627C44.6387 66.3791 45.7869 62.9754 47.7666 60.6758C49.7387 58.385 52.5808 57.1368 56.0889 57.1367ZM34.6484 57.4346C35.9622 57.4346 36.9488 57.8297 37.6055 58.4824C38.262 59.135 38.6445 60.1001 38.6445 61.3457V80.8311C38.6445 81.899 38.291 82.7368 37.7129 83.3066C37.134 83.8771 36.2871 84.2206 35.2227 84.2207C34.158 84.2207 33.3104 83.8772 32.7314 83.3066C32.1534 82.7368 31.8008 81.899 31.8008 80.8311V63.6553H30.9951L30.8662 63.7451L28.0361 65.7178V65.7187C27.7221 65.9382 27.493 66.0618 27.2744 66.1357C27.0595 66.2084 26.8257 66.2422 26.4912 66.2422C25.3111 66.2422 24.4004 65.3734 24.4004 64.0811C24.4004 63.1527 24.7591 62.4115 25.6621 61.7949L30.5059 58.541C31.9427 57.5773 33.1789 57.4346 34.6484 57.4346ZM95.8994 57.416C96.9616 57.416 97.6934 58.1285 97.6934 59.1123C97.6933 59.5303 97.5292 59.9535 97.1846 60.4736L97.1836 60.4746L90.1914 71.1016L90.1904 71.1035L82.4209 82.9961L82.4189 82.998C82.0949 83.5002 81.8185 83.7948 81.541 83.9697C81.2744 84.1378 80.9658 84.2207 80.5264 84.2207C79.4968 84.2206 78.6223 83.5512 78.6221 82.5996C78.6221 81.9915 78.7897 81.6398 79.0938 81.1631L86.3818 70.1445L86.3828 70.1455L86.3848 70.1416L93.8193 58.6973L93.8203 58.6982C94.1511 58.1946 94.4186 57.8883 94.7129 57.6992C94.9945 57.5183 95.3462 57.416 95.8994 57.416ZM99.1367 69.8477C101.095 69.8477 102.668 70.4912 103.755 71.667C104.846 72.8473 105.5 74.6215 105.5 76.9785C105.5 79.3083 104.855 81.1134 103.764 82.3301C102.678 83.5407 101.105 84.2207 99.1367 84.2207C97.1759 84.2207 95.6029 83.5495 94.5156 82.3457C93.4232 81.1361 92.7734 79.3357 92.7734 76.9971C92.7735 74.6313 93.432 72.8527 94.5254 71.6699C95.615 70.4913 97.1884 69.8477 99.1367 69.8477ZM10.6553 62.8506C11.6045 62.8506 12.2924 63.1408 12.7461 63.627C13.2041 64.1179 13.4854 64.8748 13.4854 65.9238V70.5742H17.9258C18.9085 70.5742 19.6168 70.8454 20.0771 71.2861C20.5345 71.7242 20.8105 72.391 20.8105 73.3125C20.8105 74.2317 20.5308 74.8973 20.0674 75.3359C19.6001 75.7781 18.8818 76.0508 17.8887 76.0508H13.4854V80.6826C13.4853 81.7317 13.2042 82.4886 12.7461 82.9795C12.2924 83.4656 11.6045 83.7559 10.6553 83.7559C9.70632 83.7558 9.01989 83.4652 8.56641 82.9775C8.10814 82.4846 7.82528 81.7234 7.8252 80.6641V76.0508H3.36719C2.38438 76.0508 1.68088 75.7794 1.22559 75.3398C0.772761 74.9026 0.500058 74.236 0.5 73.3125C0.5 72.389 0.772878 71.7224 1.22559 71.2852C1.68088 70.8456 2.38436 70.5742 3.36719 70.5742H7.8252V65.9238C7.8252 64.8765 8.11043 64.1188 8.57129 63.627C9.02801 63.1396 9.71646 62.8506 10.6553 62.8506ZM99.1367 72.7754C98.8211 72.7754 98.5073 72.8531 98.2227 73.0439C97.9412 73.2327 97.7204 73.5099 97.5527 73.8584C97.2253 74.5391 97.0645 75.5623 97.0645 76.9971C97.0645 78.4175 97.2317 79.454 97.5576 80.1533C97.7233 80.5088 97.9393 80.798 98.2148 80.998C98.4956 81.2019 98.8117 81.2939 99.1367 81.2939C99.4644 81.2939 99.7826 81.2024 100.065 80.998C100.343 80.7975 100.559 80.5082 100.724 80.1523C101.047 79.4528 101.209 78.4159 101.209 76.9971C101.209 75.5622 101.048 74.5391 100.721 73.8584C100.553 73.5099 100.332 73.2327 100.051 73.0439C99.7662 72.8531 99.4523 72.7754 99.1367 72.7754ZM56.0889 62.2041C54.6754 62.2043 53.5285 62.9357 52.7656 64.3857C52.0209 65.8013 51.6309 67.912 51.6309 70.7627C51.6309 73.6049 52.0215 75.7403 52.7637 77.1836C53.5212 78.6568 54.6646 79.4324 56.0889 79.4326C57.5141 79.4326 58.6535 78.6563 59.4062 77.1826C60.1434 75.7395 60.5293 73.6043 60.5293 70.7627C60.5293 67.9126 60.1439 65.8021 59.4043 64.3867C58.6462 62.9363 57.5032 62.2041 56.0889 62.2041ZM77.2891 57.416C79.2472 57.416 80.8202 58.0594 81.9072 59.2354C82.9982 60.4156 83.6523 62.1891 83.6523 64.5459C83.6523 66.8757 83.007 68.6817 81.916 69.8984C80.8305 71.1089 79.2576 71.7891 77.2891 71.7891C75.3283 71.789 73.7553 71.117 72.668 69.9131C71.5757 68.7036 70.9259 66.9038 70.9258 64.5654C70.9258 62.1996 71.5842 60.4201 72.6777 59.2373C73.7673 58.0587 75.3408 57.4161 77.2891 57.416ZM77.2891 60.3428C76.9736 60.3428 76.6596 60.4205 76.375 60.6113C76.0935 60.8001 75.8737 61.0782 75.7061 61.4268C75.3787 62.1075 75.2168 63.1307 75.2168 64.5654C75.2168 65.9858 75.384 67.0224 75.71 67.7217C75.8756 68.077 76.0918 68.3654 76.3672 68.5654C76.6479 68.7692 76.9641 68.8613 77.2891 68.8613C77.6166 68.8613 77.935 68.7706 78.2178 68.5664C78.4954 68.3658 78.7114 68.0757 78.876 67.7197C79.1993 67.0202 79.3613 65.984 79.3613 64.5654C79.3613 63.1308 79.2003 62.1075 78.873 61.4268C78.7055 61.0783 78.4855 60.8001 78.2041 60.6113C77.9195 60.4204 77.6047 60.3428 77.2891 60.3428ZM54.9141 1.78613C55.3265 0.695283 56.4255 0.236935 57.3457 0.654297C57.7992 0.860158 58.174 1.26238 58.3721 1.78613L63.2412 14.666C63.6446 15.7327 64.5755 16.4923 65.6777 16.5869L78.3701 17.6758C79.3664 17.7612 80.1856 18.7381 80.0996 19.9424C80.0589 20.5136 79.8121 21.0334 79.4287 21.3916L69.749 30.4336C68.9308 31.1976 68.588 32.3828 68.833 33.499L71.8086 47.0439C72.0502 48.1438 71.4776 49.1972 70.5947 49.5381L70.4141 49.5967C69.9429 49.7209 69.4432 49.6366 69.0215 49.3535V49.3525L58.1631 42.0654C57.2323 41.4409 56.0528 41.4408 55.1221 42.0654L44.3525 49.2939C43.4935 49.8704 42.3522 49.5956 41.7979 48.6045C41.5247 48.116 41.441 47.5213 41.5713 46.959L43.2383 39.7695C43.8099 37.3044 45.3455 35.261 47.4102 34.1748L59.1592 27.9941C59.9601 27.5728 60.2588 26.5601 59.9004 25.7422C59.6039 25.0658 58.9065 24.6462 58.1689 24.7861L45.0908 27.2666C42.5942 27.7401 40.0261 26.988 38.0693 25.1914L33.9385 21.3975C33.1273 20.6527 33.0118 19.3019 33.7021 18.3994C34.0323 17.9677 34.4966 17.7118 34.9844 17.6699L47.6074 16.5869C48.7097 16.4924 49.6405 15.7327 50.0439 14.666L54.9141 1.78613Z" stroke="var(--stroke-0, black)" stroke-opacity="0.2"/>
</g>
<defs>
<radialGradient id="paint0_radial_2410_1774" cx="0" cy="0" r="1" gradientTransform="matrix(53.0716 48.3355 -44.9395 126.857 -0.641183 -4.64372)" gradientUnits="userSpaceOnUse">
<stop stop-color="#EA9812"/>
<stop offset="1" stop-color="#EA9812" stop-opacity="0"/>
</radialGradient>
<radialGradient id="paint1_radial_2410_1774" cx="0" cy="0" r="1" gradientTransform="matrix(-44.073 -67.4082 56.2178 -94.4986 105.502 115.834)" gradientUnits="userSpaceOnUse">
<stop stop-color="#EA9812"/>
<stop offset="1" stop-color="#EA9812" stop-opacity="0"/>
</radialGradient>
<radialGradient id="paint2_radial_2410_1774" cx="0" cy="0" r="1" gradientTransform="matrix(53.0716 48.3355 -44.9395 126.857 -0.641183 -4.64372)" gradientUnits="userSpaceOnUse">
<stop stop-color="#EA9812"/>
<stop offset="1" stop-color="#EA9812" stop-opacity="0"/>
</radialGradient>
<radialGradient id="paint3_radial_2410_1774" cx="0" cy="0" r="1" gradientTransform="matrix(-44.073 -67.4082 56.2178 -94.4986 105.502 115.834)" gradientUnits="userSpaceOnUse">
<stop stop-color="#EA9812"/>
<stop offset="1" stop-color="#EA9812" stop-opacity="0"/>
</radialGradient>
<radialGradient id="paint4_radial_2410_1774" cx="0" cy="0" r="1" gradientTransform="matrix(53.0716 48.3355 -44.9395 126.857 -0.641183 -4.64372)" gradientUnits="userSpaceOnUse">
<stop stop-color="#EA9812"/>
<stop offset="1" stop-color="#EA9812" stop-opacity="0"/>
</radialGradient>
<radialGradient id="paint5_radial_2410_1774" cx="0" cy="0" r="1" gradientTransform="matrix(-44.073 -67.4082 56.2178 -94.4986 105.502 115.834)" gradientUnits="userSpaceOnUse">
<stop stop-color="#EA9812"/>
<stop offset="1" stop-color="#EA9812" stop-opacity="0"/>
</radialGradient>
<radialGradient id="paint6_radial_2410_1774" cx="0" cy="0" r="1" gradientTransform="matrix(53.0716 48.3355 -44.9395 126.857 -0.641183 -4.64372)" gradientUnits="userSpaceOnUse">
<stop stop-color="#EA9812"/>
<stop offset="1" stop-color="#EA9812" stop-opacity="0"/>
</radialGradient>
<radialGradient id="paint7_radial_2410_1774" cx="0" cy="0" r="1" gradientTransform="matrix(-44.073 -67.4082 56.2178 -94.4986 105.502 115.834)" gradientUnits="userSpaceOnUse">
<stop stop-color="#EA9812"/>
<stop offset="1" stop-color="#EA9812" stop-opacity="0"/>
</radialGradient>
<radialGradient id="paint8_radial_2410_1774" cx="0" cy="0" r="1" gradientTransform="matrix(23.1585 16.801 -19.61 44.0944 33.5189 8.2751)" gradientUnits="userSpaceOnUse">
<stop stop-color="#EA9812"/>
<stop offset="1" stop-color="#EA9812" stop-opacity="0"/>
</radialGradient>
<radialGradient id="paint9_radial_2410_1774" cx="0" cy="0" r="1" gradientTransform="matrix(-19.2318 -23.4304 24.5314 -32.8468 79.8359 50.1521)" gradientUnits="userSpaceOnUse">
<stop stop-color="#EA9812"/>
<stop offset="1" stop-color="#EA9812" stop-opacity="0"/>
</radialGradient>
</defs>
</svg>
